<svg id="Layer_1" data-name="Layer 1" xmlns="http://www.w3.org/2000/svg" width="36" height="36" viewBox="0 0 36 36"><title>active</title><path d="M16,17.78C12,17.78,9.5,14,9.5,8.07s3.85-6.76,6.14-6.76A5.65,5.65,0,0,1,20,2.84C21.26,4.11,21.79,6,21.79,9.26,21.79,13.5,20,17.78,16,17.78Z" style="fill:none;stroke:#ccc;stroke-miterlimit:10"/><path d="M18.58,31.12H1.8V25c0-2.75,4.21-6.28,9.85-6.89l.44-.05v.44A2.28,2.28,0,0,0,12.74,20a4,4,0,0,0,2.94.94c3.61,0,3.81-2.38,3.82-2.48l0-.41.4.05a19.43,19.43,0,0,1,2.2.42" style="fill:none;stroke:#ccc;stroke-miterlimit:10"/><circle cx="26.54" cy="27.03" r="7.66" style="fill:none;stroke:#ccc;stroke-miterlimit:10"/><polyline points="22.8 27.54 25.1 29.96 30.36 24.44" style="fill:none;stroke:#5aa427;stroke-miterlimit:10"/></svg>