<?xml version="1.0" encoding="UTF-8"?><svg id="a" xmlns="http://www.w3.org/2000/svg" width="135" height="135" viewBox="0 0 135 135"><path d="M62.69,59.07H21.32c-1.27,0-2.3,1.03-2.3,2.3v74.12c0,1.27,1.03,2.3,2.3,2.3h13.66v-17.36h13.79v17.36h13.92c1.27,0,2.3-1.03,2.3-2.3V61.36c0-1.27-1.03-2.3-2.3-2.3h0ZM48.77,109.55h-13.79v-13.79h13.79v13.79ZM48.77,85.03h-13.79v-13.79h13.79v13.79Z" style="fill:#eee;stroke-width:0px"/><path d="M110.94,36.08h-41.36c-1.27,0-2.3,1.03-2.3,2.3v97.09c0,1.27,1.03,2.3,2.3,2.3h13.79v-17.36h13.79v17.36h13.79c1.27,0,2.3-1.03,2.3-2.3V38.38c0-1.27-1.03-2.3-2.3-2.3ZM97.16,109.55h-13.79v-13.79h13.79v13.79ZM97.16,85.03h-13.79v-13.79h13.79v13.79ZM97.16,61.36h-13.79v-13.79h13.79v13.79Z" style="fill:#eee;stroke-width:0px"/></svg>