<?xml version="1.0" encoding="utf-8"?><!--Generator: Adobe Illustrator 22.1.0, SVG Export Plug-In . SVG Version: 6.00 Build 0)--><svg version="1.0" id="Layer_1" xmlns="http://www.w3.org/2000/svg" xmlns:xlink="http://www.w3.org/1999/xlink" x="0px" y="0px" viewBox="0 0 205 205" style="enable-background:new 0 0 205 205" xml:space="preserve"><style type="text/css">.st0{fill:#fff;stroke:#D5D5D5;stroke-miterlimit:10;}
	.st1{opacity:0;fill:#F6F7F9;}
	.st2{opacity:1;}
	.st3{opacity:1;fill:none;stroke:#999999;stroke-miterlimit:10;}
	.st4{enable-background:new    ;}
	.st5{fill:#62687E;}
	.st6{fill:#AAAAAA;}
	.st7{fill:#CECECE;}</style><g><circle class="st0" cx="102.5" cy="102.5" r="61.6"/><!--<path class="st1" d="M102.5,0.7C46.3,0.7,0.7,46.3,0.7,102.5s45.6,101.8,101.8,101.8s101.8-45.6,101.8-101.8l0,0
		C204.3,46.3,158.7,0.7,102.5,0.7z M102.5,164.6c-34.3,0-62.1-27.8-62.1-62.1s27.8-62.1,62.1-62.1s62.1,27.8,62.1,62.1
		S136.8,164.6,102.5,164.6L102.5,164.6z"/>--><!--<g class="st2">
		<line class="st3" x1="77.7" y1="9.9" x2="79.4" y2="16.4"/>
		<line class="st3" x1="54.5" y1="19.4" x2="57.9" y2="25.3"/>
		<line class="st3" x1="19.4" y1="54.5" x2="25.3" y2="57.9"/>
		<line class="st3" x1="9.9" y1="77.7" x2="16.4" y2="79.4"/>
		<line class="st3" x1="9.9" y1="127.3" x2="16.4" y2="125.6"/>
		<line class="st3" x1="19.4" y1="150.5" x2="25.3" y2="147.1"/>
		<line class="st3" x1="54.5" y1="185.6" x2="57.9" y2="179.7"/>
		<line class="st3" x1="77.7" y1="195.1" x2="79.4" y2="188.6"/>
		<line class="st3" x1="127.3" y1="195.1" x2="125.6" y2="188.6"/>
		<line class="st3" x1="150.5" y1="185.6" x2="147.1" y2="179.7"/>
		<line class="st3" x1="185.6" y1="150.5" x2="179.7" y2="147.1"/>
		<line class="st3" x1="195.1" y1="127.3" x2="188.6" y2="125.6"/>
		<line class="st3" x1="195.1" y1="77.7" x2="188.6" y2="79.4"/>
		<line class="st3" x1="185.6" y1="54.5" x2="179.7" y2="57.9"/>
		<line class="st3" x1="150.5" y1="19.4" x2="147.1" y2="25.3"/>
		<line class="st3" x1="127.3" y1="9.9" x2="125.6" y2="16.4"/>
	</g>--><!--<g class="st4">
		<path d="M100.2,9.5c0-1.9,0.8-4.1,2.9-4.1c2.1,0,2.9,2.2,2.9,4.1c0,1.9-0.8,4.1-2.9,4.1C101,13.6,100.2,11.4,100.2,9.5z
			 M105.4,9.5c0-1.6-0.5-3.5-2.2-3.5c-1.7,0-2.2,1.8-2.2,3.5c0,1.6,0.5,3.5,2.2,3.5C104.8,13,105.4,11.1,105.4,9.5z"/>
	</g>
	<g class="st4">
		<path d="M101.1,199.3v-7l-1.3,1.3l-0.4-0.4l1.7-1.8h0.6v7.9H101.1z"/>
		<path d="M103.4,199.3v-0.6c2.7-2.2,4.5-3.7,4.5-5.2c0-1.1-0.9-1.6-1.8-1.6c-1,0-1.7,0.4-2.2,1l-0.5-0.4c0.6-0.8,1.5-1.2,2.6-1.2
			c1.2,0,2.5,0.7,2.5,2.2c0,1.7-1.8,3.3-4.1,5.2h4.2v0.6H103.4z"/>
	</g>--><!--<g class="st4">
		<path d="M6.9,105.9v-7l-1.3,1.3l-0.4-0.4l1.7-1.8h0.6v7.9H6.9z"/>
		<path d="M9.2,104c0-1.1,1-1.8,2-2.1c-0.9-0.2-1.8-0.9-1.8-1.9c0-1.4,1.3-2,2.6-2c1.2,0,2.6,0.6,2.6,2c0,1.1-0.9,1.7-1.8,1.9
			c1,0.3,2,1,2,2.1c0,1.3-1.2,2.1-2.7,2.1C10.4,106.1,9.2,105.3,9.2,104z M13.9,103.9c0-1.2-1.5-1.7-2-1.7c-0.5,0.1-2,0.5-2,1.7
			c0,1,0.9,1.5,2,1.5C12.9,105.5,13.9,104.9,13.9,103.9z M13.8,100c0-0.9-0.8-1.5-1.9-1.5c-1,0-1.9,0.5-1.9,1.5
			c0,1.1,1.4,1.5,1.9,1.5C12.4,101.5,13.8,101.1,13.8,100z"/>
	</g>
	<g class="st4">
		<path d="M34.3,41.7v-0.6c2.7-2.2,4.5-3.7,4.5-5.2c0-1.1-0.9-1.6-1.8-1.6c-1,0-1.7,0.4-2.2,1l-0.5-0.4c0.6-0.8,1.5-1.2,2.6-1.2
			c1.2,0,2.5,0.7,2.5,2.2c0,1.7-1.8,3.3-4.1,5.2h4.2v0.6H34.3z"/>
		<path d="M42.5,41.7v-7l-1.3,1.3l-0.4-0.4l1.7-1.8h0.6v7.9H42.5z"/>
	</g>--><!--<g class="st4">
		<path d="M163.7,40.5l0.5-0.4c0.4,0.6,1.2,1.1,2.2,1.1c1.2,0,2-0.6,2-1.7c0-1.1-0.9-1.6-2.1-1.6c-0.3,0-0.6,0-0.7,0v-0.6
			c0.1,0,0.4,0,0.7,0c1,0,2-0.5,2-1.5c0-1-0.9-1.5-1.9-1.5c-0.9,0-1.5,0.4-2.1,1l-0.4-0.4c0.6-0.7,1.4-1.2,2.6-1.2
			c1.4,0,2.5,0.7,2.5,2.1c0,1.2-1,1.7-1.7,1.8c0.7,0.1,1.8,0.7,1.8,2s-1,2.3-2.7,2.3C165.1,41.9,164.2,41.3,163.7,40.5z"/>
	</g>
	<g class="st4">
		<path d="M35.6,172.7v-7l-1.3,1.3l-0.4-0.4l1.7-1.8h0.6v7.9H35.6z"/>
		<path d="M38.1,171.6l0.4-0.4c0.5,0.7,1.2,1.1,2.2,1.1c1.1,0,2-0.8,2-1.9c0-1.2-0.8-1.9-2-1.9c-0.7,0-1.3,0.2-1.9,0.8l-0.5-0.2
			v-4.1h4.6v0.6h-3.9v3.1c0.4-0.4,1.1-0.7,1.9-0.7c1.3,0,2.5,0.9,2.5,2.5c0,1.6-1.2,2.5-2.7,2.5C39.5,172.9,38.7,172.3,38.1,171.6z"
			/>
	</g>
	<g class="st4">
		<path d="M164.4,171.8l0.4-0.5c0.4,0.5,0.9,0.9,1.7,0.9c1.7,0,2.3-1.8,2.3-3.5c0-0.1,0-0.2,0-0.4c-0.3,0.5-1.3,1.3-2.3,1.3
			c-1.4,0-2.5-0.8-2.5-2.5c0-1.3,1-2.5,2.6-2.5c2.1,0,2.9,2,2.9,4.1c0,2-0.8,4.1-3,4.1C165.5,172.8,164.9,172.4,164.4,171.8z
			 M168.8,167.8c-0.1-1.1-0.7-2.4-2.1-2.4c-1.3,0-2,1-2,1.9c0,1.3,0.9,1.9,2,1.9C167.5,169.1,168.4,168.5,168.8,167.8z"/>
	</g>--><!--<g class="st4">
		<path d="M192.7,102.4c0-2,0.8-4.1,3-4.1c1,0,1.7,0.4,2.1,1l-0.4,0.5c-0.4-0.5-0.9-0.9-1.7-0.9c-1.7,0-2.3,1.8-2.3,3.5
			c0,0.1,0,0.3,0,0.4c0.3-0.5,1.2-1.3,2.3-1.3c1.4,0,2.6,0.8,2.6,2.5c0,1.3-1,2.5-2.7,2.5C193.5,106.5,192.7,104.6,192.7,102.4z
			 M197.6,104c0-1.3-0.8-1.9-2-1.9c-0.9,0-1.7,0.6-2.2,1.4c0.1,1.1,0.7,2.5,2.2,2.5C196.9,105.9,197.6,104.9,197.6,104z"/>
	</g>--><g class="st4"><path class="st5" d="M101.3,148.6H85.9v-3.1l7.3-7.8c1-1.1,1.7-2,2.2-2.9c0.5-0.8,0.7-1.6,0.7-2.3c0-1-0.3-1.8-0.8-2.4
			c-0.5-0.6-1.2-0.9-2.2-0.9c-1,0-1.8,0.3-2.4,1c-0.6,0.7-0.9,1.6-0.9,2.7h-4.5c0-1.4,0.3-2.6,1-3.8c0.7-1.1,1.6-2,2.8-2.7
			c1.2-0.6,2.6-1,4.1-1c2.3,0,4.1,0.6,5.4,1.7s1.9,2.7,1.9,4.7c0,1.1-0.3,2.2-0.9,3.4c-0.6,1.2-1.6,2.5-3,4l-5.1,5.4h9.7V148.6z"/><path class="st5" d="M117.3,140.1h2.6v3.6h-2.6v4.9h-4.5v-4.9h-9.2l-0.2-2.8l9.4-14.8h4.5V140.1z M107.8,140.1h5v-8l-0.3,0.5
			L107.8,140.1z"/></g><g><path class="st6" d="M105.4,107.8l4.1,4.6c0.4,0.4,0.9,0.7,1.5,0.7c0.5,0,0.9-0.2,1.3-0.5c0.8-0.7,0.9-2,0.2-2.8l-4.4-5
			C107.5,106.1,106.6,107.1,105.4,107.8z"/><path class="st6" d="M100.9,96.7L79.5,72.5c-0.7-0.8-2-0.9-2.8-0.2c-0.8,0.7-0.9,2-0.2,2.8L97.6,99
			C98.4,97.9,99.6,97.1,100.9,96.7z"/><path class="st7" d="M91.9,106.9c-0.6,0.3-0.8,1.1-0.5,1.7c0.2,0.4,0.7,0.6,1.1,0.6c0.2,0,0.4,0,0.6-0.2l4.8-2.7
			c-0.5-0.6-1-1.4-1.2-2.2L91.9,106.9z"/><path class="st7" d="M151.8,75.2c-0.3-0.6-1.1-0.8-1.7-0.5l-43,23.8c0.5,0.6,1,1.4,1.2,2.2l43-23.8
			C151.9,76.6,152.1,75.8,151.8,75.2z"/><path class="st7" d="M102.5,96.5c-0.6,0-1.1,0.1-1.6,0.2c-1.3,0.4-2.5,1.2-3.3,2.3c-0.7,1-1.1,2.2-1.1,3.5c0,0.6,0.1,1.2,0.3,1.7
			c0.2,0.8,0.7,1.6,1.2,2.2c1.1,1.3,2.7,2.1,4.6,2.1c1,0,2-0.3,2.9-0.7c1.2-0.7,2.2-1.7,2.7-3c0.3-0.7,0.5-1.5,0.5-2.3
			c0-0.6-0.1-1.2-0.3-1.8c-0.3-0.8-0.7-1.6-1.2-2.2C105.9,97.3,104.3,96.5,102.5,96.5z"/></g></g></svg>