<?xml version="1.0" encoding="UTF-8"?><svg id="a" xmlns="http://www.w3.org/2000/svg" width="22" height="22" viewBox="0 0 22 22"><g><path d="m20.87,3h-2.97c.12.31.19.65.19,1s-.07.69-.19,1h2.97c.55,0,1-.45,1-1s-.45-1-1-1Z" fill="#b8b8b8"/><path d="m11.73,3H1.13c-.55,0-1,.45-1,1s.45,1,1,1h10.6c-.12-.31-.19-.65-.19-1s.07-.69.19-1Z" fill="#b8b8b8"/><path d="m16.83,4c0-1.12-.91-2.02-2.02-2.02s-2.02.91-2.02,2.02.91,2.02,2.02,2.02,2.02-.91,2.02-2.02Z" fill="#666"/></g><g><path d="m13.06,18c0-.35.07-.69.19-1H1.13c-.55,0-1,.45-1,1s.45,1,1,1h12.12c-.12-.31-.19-.65-.19-1Z" fill="#b8b8b8"/><path d="m20.87,17h-1.45c.12.31.19.65.19,1s-.07.69-.19,1h1.45c.55,0,1-.45,1-1s-.45-1-1-1Z" fill="#b8b8b8"/><path d="m18.39,18c0-1.12-.91-2.02-2.02-2.02s-2.02.91-2.02,2.02.91,2.02,2.02,2.02,2.02-.91,2.02-2.02Z" fill="#666"/></g><g><path d="m3.59,11c0-.35.07-.69.19-1H1.13c-.55,0-1,.45-1,1s.45,1,1,1h2.66c-.12-.31-.19-.65-.19-1h0Z" fill="#b8b8b8"/><path d="m20.87,10h-10.92c.12.31.19.65.19,1s-.07.69-.19,1h10.92c.55,0,1-.45,1-1s-.45-1-1-1Z" fill="#b8b8b8"/><path d="m8.89,11c0-1.12-.91-2.02-2.02-2.02s-2.02.91-2.02,2.02.91,2.02,2.02,2.02,2.02-.91,2.02-2.02Z" fill="#666"/></g></svg>