<?xml version="1.0" encoding="UTF-8"?><svg id="a" xmlns="http://www.w3.org/2000/svg" viewBox="0 0 36 36"><path d="M19,27.71L28.1,8.21c.2-.4,0-1-.4-1.2s-1-.1-1.3,.3L13.9,24.81v.1c-.6,1-.7,2.1-.2,3,.2,.4,.6,.8,1,1.1,.7,.5,1.5,.7,2.2,.5,.8-.3,1.6-.9,2.1-1.8,0,.1,0,0,0,0Z" fill="#fff"/><g><path d="M4.36,24.05c0-7.52,6.12-13.64,13.64-13.64,1.46,0,2.86,.24,4.18,.66l2.41-3.37c-2.04-.82-4.26-1.29-6.59-1.29C8.27,6.41,.36,14.32,.36,24.05c0,1.15,.12,2.27,.33,3.36H4.79c-.27-1.08-.44-2.2-.44-3.36Z" fill="#fff"/><path d="M35.64,24.05c0-5.73-2.76-10.82-7-14.04l-1.74,3.72c2.9,2.5,4.74,6.19,4.74,10.32,0,1.16-.16,2.28-.44,3.36h4.11c.21-1.09,.33-2.21,.33-3.36Z" fill="#fff"/></g></svg>