<?xml version="1.0" encoding="UTF-8"?><svg id="a" xmlns="http://www.w3.org/2000/svg" viewBox="0 0 22 22"><path d="M21.11,14.55c-.42-.21-.86-.37-1.31-.49-.02-.01-1.42-.38-2.07-.73l-.06-.04c-.14-.09-.22-.25-.22-.41v-.86s1.91,.06,2.82-.87c0,0-1.32-.37-1.08-2.78,.24-2.4-.3-4.51-2.24-4.33,0,0-.84-1.01-2.5-.37-.57,.22-2.11,.77-2.03,4.1,.08,3.33-1.18,3.35-1.18,3.35,0,0,.66,.95,2.87,.93v.83c0,.15-.07,.28-.18,.37,.65,.55,1.17,1.11,1.55,1.95,.39,.88,.41,2.04,.51,2.91h5.52c.28,0,.5-.22,.5-.5v-1.8c-.05-.55-.39-1.03-.89-1.27Z" fill="#fd2d32"/><path d="M14.86,16.22c-.35-1.13-.96-1.84-1.87-2.54-.01,0-.02-.02-.03-.03-.88-.61-2.67-1.32-3.62-1.81l.02-.92c.56-.24,.91-1.53,.98-1.9,.19,.11,.46,.04,.77-1.05,.27-.9,.12-1.19-.12-1.27h-.08c.04-.11,.04-.19,.04-.19,.85-3.43-1.12-3.28-1.12-3.28-.15-.67-1.15-1.38-2.08-1.19-.92,.19-2.85-.04-2.85-.04-.04,.41,.31,.67,.31,.67-1.96,1.16-1.15,3.84-1.15,3.84-.31-.04-.65,.15-.31,1.27,.23,.82,.46,1.05,.65,1.08,.08,.49,.5,1.76,.96,2.05v.92c-1.41,.74-3.65,1.77-4.87,2.77C.18,14.87,0,15.27,0,15.7v2.57c0,.28,.22,.5,.5,.5H14.56c.28,0,.51-.23,.5-.52-.03-.67-.07-1.65-.19-2.04Z" fill="#0540d3"/></svg>