<svg id="Layer_1" data-name="Layer 1" xmlns="http://www.w3.org/2000/svg" viewBox="0 0 36 36"><defs><style>.cls-1{fill:#b8b8b8;}.cls-2{fill:#666666;}</style></defs><title>d-icon-5</title><path class="cls-1" d="M22.58,6.62A16.44,16.44,0,0,0,18,6,18.39,18.39,0,0,0,.32,27.75h4a13.33,13.33,0,0,1-.41-3.42A14.2,14.2,0,0,1,17.91,10a15,15,0,0,1,3.76.52Z"/><path class="cls-1" d="M29.4,15.84a14.37,14.37,0,0,1,2.74,8.49,17,17,0,0,1-.41,3.42h4a19.76,19.76,0,0,0,.3-3.42,19,19,0,0,0-3.66-11.08Z"/><path class="cls-2" d="M19,28.06l9.26-20.2a1,1,0,0,0-.41-1.24,1.09,1.09,0,0,0-1.32.31L13.84,25.05v.11a3.1,3.1,0,0,0-.2,3.1,3.51,3.51,0,0,0,1,1.14,2.61,2.61,0,0,0,2.24.52A4.09,4.09,0,0,0,19,28.06Z"/></svg>