<svg id="Layer_1" data-name="Layer 1" xmlns="http://www.w3.org/2000/svg" width="36" height="36" viewBox="0 0 36 36"><path d="M11,31H6V26h5ZM7,30h3V27H7Z" style="fill:#0540d3"/><path d="M18,31H13V26h5Zm-4-1h3V27H14Z" style="fill:#0540d3"/><path d="M25,31H20V26h5Zm-4-1h3V27H21Z" style="fill:#0540d3"/><path d="M6,24h5V19H6Zm1-4h3v3H7Z" style="fill:#0540d3"/><path d="M13,24h5V19H13Zm1-4h3v3H14Z" style="fill:#0540d3"/><path d="M20,24h5V19H20Zm1-4h3v3H21Z" style="fill:#0540d3"/><path d="M36,9.5A9.5,9.5,0,0,0,17.34,7H15V5H14V7H7V5H6V7H1V35H31V17.86A9.5,9.5,0,0,0,36,9.5ZM6,8v3H7V8h7v3h1V8h2.13a9.26,9.26,0,0,0,1,6H2V8ZM30,34H2V15H18.77a9.47,9.47,0,0,0,7.73,4,9.25,9.25,0,0,0,3.5-.68ZM26.5,18A8.5,8.5,0,1,1,35,9.5,8.51,8.51,0,0,1,26.5,18Z" style="fill:#0540d3"/><polygon points="25.5 11.79 22.85 9.15 22.15 9.85 25.5 13.21 31.85 6.85 31.15 6.15 25.5 11.79" style="fill:#0540d3"/></svg>