<svg id="Layer_1" data-name="Layer 1" xmlns="http://www.w3.org/2000/svg" width="400" height="400" viewBox="0 0 400 400"><defs><style>.cls-1,.cls-2,.cls-3,.cls-4,.cls-5{fill:none;stroke:#fff;}.cls-1,.cls-3,.cls-4,.cls-5{stroke-miterlimit:10;}.cls-1,.cls-2,.cls-3{stroke-width:3px;}.cls-1{stroke-dasharray:8 8;}.cls-2{stroke-linecap:square;stroke-linejoin:bevel;}.cls-4{stroke-width:5px;}.cls-5{stroke-width:2px;}.cls-6{fill:#fff;}</style></defs><path class="cls-1" d="M358.71,92.86a55,55,0,0,1-76.64,64.49"/><path class="cls-2" d="M219.58,155.62h59.17A55,55,0,1,1,353.86,81"/><path class="cls-3" d="M270.94,65c-8.25-5.85-19.44-5.54-29.08-5.31-1.27-2.65-3.86-18.23-17.05-26.87-12.95-8.48-30.1-7-42.73.91-1,.62-2,1.28-2.93,2l-.31.22c-5.52-5.16-11.23-10.39-18.36-13.21C139.73,14.55,112.15,19.36,97,36.39c-8.39,9.4-12.17,22.67-14,34.87-11.55.22-24.33,2.65-32,10.68S39.27,98.62,39.27,110.65c0,29.22,18.81,45,42.82,45H132"/><polygon class="cls-3" points="175.56 80.5 117.16 211.76 173.03 183.74 162.8 209.41 156.05 206.69 151.22 221.76 187.26 237.19 194.51 222.24 186.56 219.02 211.98 144.4 156.56 171.72 175.56 80.5"/><line class="cls-4" x1="157.01" y1="242.86" x2="163.71" y2="227.78"/><line class="cls-4" x1="168.89" y1="247.9" x2="175.58" y2="232.82"/><polygon class="cls-3" points="142.58 263.64 149.22 247.77 141.25 244.68 130.07 270.66 137.86 273.68 113.06 374.92 160.73 282.55 168.78 285.68 177.77 258.85 169.87 255.78 163.93 271.93 142.58 263.64"/><line class="cls-4" x1="159.95" y1="251.64" x2="153.73" y2="267.67"/><line class="cls-5" x1="282.07" y1="136.43" x2="327.47" y2="136.43"/><line class="cls-5" x1="282.07" y1="78.13" x2="327.47" y2="78.13"/><polyline class="cls-5" points="286.64 78.14 286.64 92.86 300.58 104.14 300.58 111.08 286.64 121.76 286.64 136.43"/><polyline class="cls-5" points="322.89 78.14 322.89 92.86 308.95 104.14 308.95 111.08 322.89 121.76 322.89 136.43"/><polygon class="cls-6" points="320.53 91.4 304.77 103.54 289 91.4 289 85.5 320.53 85.5 320.53 91.4"/><polygon class="cls-6" points="305.77 103.14 304.77 120.99 303.77 103.14 305.77 103.14"/><polygon class="cls-6" points="320.53 129.64 304.77 117.5 289 129.64 289 133.86 320.53 133.86 320.53 129.64"/></svg>