<?xml version="1.0" encoding="UTF-8"?><svg id="a" xmlns="http://www.w3.org/2000/svg" width="60" height="75" xmlns:xlink="http://www.w3.org/1999/xlink" viewBox="0 0 60 75"><defs><linearGradient id="b" x1="35.06" y1="16.4" x2="49.01" y2="30.96" gradientUnits="userSpaceOnUse"><stop offset="0" stop-color="#f62801"/><stop offset="1" stop-color="#bd0002"/></linearGradient><linearGradient id="c" x1="44.42" y1="42.5" x2="22.94" y2="23.4" gradientUnits="userSpaceOnUse"><stop offset=".16" stop-color="#b027ff"/><stop offset=".3" stop-color="#cc3cda"/><stop offset=".46" stop-color="#e74fb8"/><stop offset=".59" stop-color="#f75aa4"/><stop offset=".67" stop-color="#fd5f9d"/></linearGradient><linearGradient id="d" x1="50.58" y1="43.09" x2="27.86" y2="65.49" gradientUnits="userSpaceOnUse"><stop offset=".36" stop-color="#b12aff"/><stop offset=".68" stop-color="#0951d8"/></linearGradient><linearGradient id="e" x1="16.55" y1="25.11" x2="27.62" y2="13.67" gradientUnits="userSpaceOnUse"><stop offset=".16" stop-color="#fb7d00"/><stop offset=".58" stop-color="#f93f00"/><stop offset=".75" stop-color="#f92700"/></linearGradient><linearGradient id="f" x1="5.99" y1="41.33" x2="34.12" y2="66.08" gradientUnits="userSpaceOnUse"><stop offset=".25" stop-color="#0c7503"/><stop offset=".75" stop-color="#0b51d9"/></linearGradient><linearGradient id="g" x1="11.67" y1="28.76" x2="30.79" y2="46.24" gradientUnits="userSpaceOnUse"><stop offset="0" stop-color="#fd7e00"/><stop offset="1" stop-color="#fd5fa0"/></linearGradient></defs><path d="m57.57,45.25c-.02-.27-.06-.53-.11-.79,0-.04-.01-.08-.02-.11-.05-.27-.11-.53-.18-.79,0-.02-.01-.04-.02-.06-.15-.54-.34-1.06-.57-1.56-.01-.02-.02-.05-.03-.07-.11-.24-.23-.47-.36-.69-.02-.04-.04-.07-.06-.11-.13-.22-.26-.43-.4-.64-.03-.04-.05-.08-.08-.11-.14-.2-.29-.4-.45-.59-.02-.03-.05-.06-.07-.09-.14-.17-.29-.34-.45-.5-.04-.04-.08-.09-.13-.13-.16-.16-.33-.32-.5-.47-.05-.05-.11-.1-.16-.14-.18-.15-.35-.29-.54-.43-.05-.04-.11-.08-.16-.11-.17-.12-.34-.24-.52-.35,2.91-1.8,4.86-5.03,4.86-8.7,0-5.09-3.8-9.44-8.84-10.12h0c-.51-.07-.95-.1-1.37-.1-3.96,0-7.17-3.22-7.17-7.17,0-.2,0-.4-.02-.6,0,0,0-.01,0-.02-.02-.31-.06-.61-.1-.91,0,0,0,0,0-.01-.13-.88-.38-1.72-.73-2.51,0,0,0-.02-.01-.03-.1-.23-.21-.46-.33-.68-.01-.03-.03-.05-.04-.08-.13-.23-.26-.46-.4-.68-.03-.04-.05-.08-.08-.12-.12-.18-.25-.36-.38-.53-.06-.08-.12-.15-.18-.23-.1-.12-.19-.23-.29-.35-.11-.12-.22-.24-.33-.36-.07-.07-.13-.14-.2-.2-.15-.15-.31-.29-.48-.43-.06-.05-.12-.11-.19-.16-.11-.09-.22-.17-.33-.26-.08-.06-.16-.12-.24-.17-.16-.11-.32-.22-.49-.32-.09-.06-.19-.11-.28-.17-.14-.08-.28-.16-.42-.23-.13-.07-.27-.14-.4-.2-.09-.04-.18-.08-.27-.12-.19-.08-.39-.16-.58-.23-.07-.03-.14-.05-.21-.07-.2-.07-.4-.13-.61-.18-.04,0-.07-.02-.11-.03-.23-.06-.46-.11-.7-.15-.05,0-.11-.02-.16-.03-.24-.04-.49-.07-.73-.09-.05,0-.1,0-.15-.01-.26-.02-.52-.03-.79-.03s-.53.01-.79.03c-.05,0-.1,0-.15.01-.25.02-.49.05-.73.09-.05,0-.11.02-.16.03-.24.04-.47.09-.7.15-.04,0-.07.02-.1.03-.21.06-.41.12-.61.19-.07.02-.14.05-.21.07-.2.07-.4.15-.59.23-.09.04-.17.08-.26.12-.14.06-.28.13-.41.2-.13.07-.27.14-.4.22-.1.06-.2.12-.3.18-.15.09-.29.19-.44.29-.1.07-.19.14-.29.21-.11.08-.21.16-.32.25-.07.06-.15.12-.22.19-.15.13-.3.26-.44.4-.08.07-.15.15-.22.22-.1.1-.2.21-.3.32-.11.12-.22.25-.32.38-.06.07-.11.14-.17.21-.14.18-.27.36-.39.55-.02.03-.04.07-.06.1-.14.22-.28.45-.4.69-.01.03-.03.05-.04.08-.12.23-.23.46-.34.7,0,0,0,0,0,.01-.35.8-.6,1.65-.73,2.53,0,0,0,0,0,0-.05.3-.08.61-.1.92,0,0,0,0,0,0-.01.2-.02.41-.02.61,0,3.96-3.22,7.17-7.17,7.17-.13,0-.26,0-.39,0-.2,0-.42.03-.64.05-1.77.18-3.4.81-4.79,1.77,0,0-.02.01-.03.02-.2.14-.4.29-.59.45-.02.01-.03.02-.05.04-.19.15-.37.32-.54.48-.02.02-.03.03-.05.05-.17.17-.34.34-.5.52-.02.02-.03.04-.05.06-.16.18-.31.36-.46.55-.02.02-.03.04-.05.06-.14.19-.28.38-.41.58-.02.02-.03.05-.05.07-.13.2-.25.4-.36.6-.02.03-.03.06-.05.09-.11.2-.21.41-.31.62-.02.04-.04.09-.06.13-.09.2-.17.4-.25.61-.02.07-.04.14-.07.21-.06.19-.13.37-.18.56-.07.26-.13.53-.19.8,0,.01,0,.02,0,.04-.05.29-.09.58-.12.88,0,.02,0,.05,0,.07-.03.3-.04.6-.04.9,0,.28.01.56.04.84,0,.04,0,.08,0,.11.02.27.06.53.11.79,0,.04.01.08.02.11.05.27.11.53.18.79,0,.02.01.04.02.06.15.54.34,1.06.57,1.56.01.02.02.05.03.07.11.24.23.47.36.69.02.04.04.07.06.11.13.22.26.43.4.64.03.04.05.08.08.11.14.2.29.4.45.59.02.03.05.06.08.09.14.17.29.34.45.5.04.04.08.09.13.13.16.16.33.32.5.47.05.05.11.1.17.14.18.15.35.29.54.43.05.04.11.08.16.11.17.12.34.24.52.35-2.91,1.8-4.86,5.03-4.86,8.7,0,5.09,3.8,9.44,8.84,10.12.51.07.95.1,1.37.1,3.96,0,7.17,3.22,7.17,7.17,0,.2,0,.4.02.61,0,0,0,0,0,.01.02.31.06.62.1.92,0,0,0,0,0,0,.13.89.38,1.73.73,2.53,0,0,0,.01,0,.02.1.24.21.47.34.69.01.03.03.05.04.08.13.23.26.46.4.68.02.03.04.07.07.11.12.19.25.37.39.55.05.07.11.14.17.21.1.13.21.25.32.37.1.11.2.22.3.33.07.07.15.15.22.22.14.14.29.28.45.41.07.06.14.12.21.18.1.08.21.17.32.25.09.07.19.14.28.2.15.1.29.2.44.3.1.06.2.12.29.18.13.08.27.15.4.22.14.07.27.14.41.2.09.04.17.08.26.12.19.08.39.16.59.23.07.02.14.05.21.07.2.07.41.13.61.19.03,0,.07.02.1.03.23.06.47.11.7.15.05,0,.1.02.16.03.24.04.49.07.73.09.05,0,.1,0,.15.01.26.02.52.03.79.03s.53-.01.79-.03c.05,0,.1,0,.15-.01.25-.02.49-.05.73-.09.05,0,.11-.02.16-.03.24-.04.47-.09.7-.15.04,0,.07-.02.11-.03.21-.05.41-.12.61-.18.07-.02.14-.05.21-.07.2-.07.39-.15.58-.23.09-.04.18-.08.27-.12.14-.06.27-.13.4-.2.14-.07.28-.15.42-.23.09-.06.19-.11.28-.17.17-.1.33-.21.49-.32.08-.06.16-.11.24-.17.11-.08.22-.17.33-.26.06-.05.13-.11.19-.16.16-.14.32-.28.48-.43.07-.07.14-.14.2-.2.11-.12.22-.23.33-.36.1-.11.2-.23.29-.35.06-.07.12-.15.18-.23.13-.17.26-.35.38-.53.03-.04.05-.08.08-.12.14-.22.27-.45.4-.68.01-.03.03-.05.04-.08.12-.22.23-.45.33-.68,0,0,0-.02.01-.03.34-.79.59-1.63.73-2.51,0,0,0,0,0-.01.05-.3.08-.61.1-.91,0,0,0-.01,0-.02.01-.2.02-.4.02-.6,0-3.96,3.22-7.17,7.17-7.17.13,0,.26,0,.39,0,.2,0,.42-.03.65-.05,1.77-.18,3.4-.81,4.79-1.77,0,0,.02-.01.03-.02.2-.14.4-.29.59-.45.02-.01.03-.03.05-.04.19-.15.37-.32.54-.48.02-.02.03-.03.05-.05.17-.17.34-.34.5-.52.02-.02.03-.04.05-.06.16-.18.31-.36.46-.55.02-.02.03-.04.05-.06.14-.19.28-.38.41-.58.02-.02.03-.05.05-.07.13-.2.25-.4.36-.6.02-.03.03-.06.05-.09.11-.2.21-.41.31-.61.02-.04.04-.09.06-.13.09-.2.17-.4.25-.61.02-.07.04-.14.07-.21.06-.19.13-.37.18-.56.07-.26.13-.53.19-.8,0-.01,0-.02,0-.04.05-.29.09-.58.12-.88,0-.02,0-.05,0-.07.03-.3.04-.6.04-.9,0-.28-.01-.56-.04-.84,0-.04,0-.08,0-.11Z" fill="#01053e"/><path d="m48.36,21.79c-.38-.05-.68-.07-.97-.07-3.67,0-6.9-1.95-8.7-4.87-.32-.52-.6-1.07-.82-1.65-.45-1.15-.7-2.4-.7-3.7,0-.2-.01-.39-.03-.59,0-.09-.01-.17-.02-.26,0-.03-.01-.06-.01-.1-.04-.26-.09-.52-.15-.79-.18-.7-.46-1.36-.81-1.96-.06-.09-.11-.18-.17-.27-.04-.06-.09-.12-.13-.19-.09-.12-.17-.24-.27-.36-.04-.05-.08-.09-.12-.14-.11-.13-.22-.25-.34-.37-.03-.03-.07-.07-.1-.1-.13-.13-.27-.25-.41-.37-.03-.02-.05-.04-.08-.07-.52-.42-1.09-.77-1.71-1.04-.04-.02-.09-.03-.13-.05-.16-.06-.31-.12-.48-.17-.07-.02-.14-.04-.2-.06-.14-.04-.29-.08-.44-.11-.08-.02-.15-.03-.23-.05-.15-.03-.3-.05-.46-.07-.07,0-.14-.02-.21-.03-.22-.02-.45-.03-.68-.03s-.46.01-.68.03c-.07,0-.14.02-.21.03-.15.02-.31.04-.46.07-.08.01-.15.03-.23.05-.15.03-.29.07-.43.11-.07.02-.14.04-.21.06-.16.05-.32.11-.47.17-.05.02-.09.04-.14.05-.41.18-.81.39-1.18.64,0,0,0,0-.01,0-.18.12-.35.25-.51.38-.03.02-.06.05-.09.07-.14.12-.27.24-.4.36-.04.04-.08.08-.11.11-.11.11-.22.23-.32.36-.04.05-.09.1-.13.15-.09.11-.17.22-.25.34-.05.07-.1.14-.15.21-.05.07-.09.15-.14.22-.37.61-.66,1.28-.84,2-.06.25-.11.49-.14.73,0,.05-.02.11-.02.16-.01.08-.02.16-.02.24-.02.2-.03.4-.03.6,0,3.44,2.45,6.4,5.83,7.04.46.09.91.13,1.35.13.33,0,.65.02.97.05.01,0,.03,0,.04,0,.32.03.63.08.93.14.01,0,.03,0,.04,0,.31.06.61.14.91.23,0,0,.02,0,.02,0,.26.08.52.17.77.27.04.02.08.03.12.05h0c.54.22,1.05.48,1.54.78,2.92,1.8,4.86,5.03,4.86,8.7,0,.11.01.22.02.33v.12c.07.94.3,1.83.69,2.63,0,0,0,.02.01.03.09.19.19.37.3.55,0,.02.02.03.03.05.1.17.22.34.33.5.02.02.03.04.05.06.12.16.24.31.36.45.02.03.05.05.07.07.12.14.25.27.39.4.03.03.06.05.09.08.13.12.27.24.41.35.04.03.08.06.11.08.14.11.28.21.43.3.05.03.09.06.14.08.14.09.29.17.44.25.06.03.12.06.17.08.14.07.29.14.44.2.07.03.14.05.22.08.14.05.28.1.42.15.09.03.19.05.28.07.13.03.25.07.39.1.13.03.25.04.38.06.1.01.2.04.31.05.24.02.47.04.71.04,3.96,0,7.17-3.22,7.17-7.17,0-3.57-2.67-6.62-6.21-7.1Z" fill="url(#b)"/><path d="m48.36,39.01c-.38-.05-.68-.07-.97-.07-3.67,0-6.9-1.95-8.7-4.87-.32-.52-.6-1.07-.82-1.65-.45-1.15-.7-2.4-.7-3.7,0-.2-.01-.39-.03-.59,0-.09-.01-.17-.02-.26,0-.03-.01-.06-.01-.1-.04-.26-.09-.52-.15-.79-.18-.7-.46-1.36-.81-1.96-.06-.09-.11-.18-.17-.27-.04-.06-.09-.12-.13-.19-.09-.12-.17-.24-.27-.36-.04-.05-.08-.09-.12-.14-.11-.13-.22-.25-.34-.37-.03-.03-.07-.07-.1-.1-.13-.13-.27-.25-.41-.37-.03-.02-.05-.04-.08-.07-.52-.42-1.09-.77-1.71-1.04-.04-.02-.09-.03-.13-.05-.16-.06-.31-.12-.48-.17-.07-.02-.14-.04-.2-.06-.14-.04-.29-.08-.44-.11-.08-.02-.15-.03-.23-.05-.15-.03-.3-.05-.46-.07-.07,0-.14-.02-.21-.03-.22-.02-.45-.03-.68-.03s-.46.01-.68.03c-.07,0-.14.02-.21.03-.15.02-.31.04-.46.07-.08.01-.15.03-.23.05-.15.03-.29.07-.43.11-.07.02-.14.04-.21.06-.16.05-.32.11-.47.17-.05.02-.09.04-.14.05-.41.18-.81.39-1.18.64,0,0,0,0-.01,0-.18.12-.35.25-.51.38-.03.02-.06.05-.09.07-.14.12-.27.24-.4.36-.04.04-.08.08-.11.11-.11.11-.22.23-.32.36-.04.05-.09.1-.13.15-.09.11-.17.22-.25.34-.05.07-.1.14-.15.21-.05.07-.09.15-.14.22-.37.61-.66,1.28-.84,2-.06.25-.11.49-.14.73,0,.05-.02.11-.02.16-.01.08-.02.16-.02.24-.02.2-.03.4-.03.6,0,3.44,2.45,6.4,5.83,7.04.46.09.91.13,1.35.13.33,0,.65.02.97.05.01,0,.03,0,.04,0,.32.03.63.08.93.14.01,0,.03,0,.04,0,.31.06.61.14.91.23,0,0,.02,0,.02,0,.26.08.52.17.77.27.04.02.08.03.12.05h0c.54.22,1.05.48,1.54.78,2.92,1.8,4.86,5.03,4.86,8.7,0,.11.01.22.02.33v.12c.07.94.3,1.83.69,2.63,0,0,0,.02.01.03.09.19.19.37.3.55,0,.02.02.03.03.05.1.17.22.34.33.5.02.02.03.04.05.06.12.16.24.31.36.45.02.03.05.05.07.07.12.14.25.27.39.4.03.03.06.05.09.08.13.12.27.24.41.35.04.03.08.06.11.08.14.11.28.21.43.3.05.03.09.06.14.08.14.09.29.17.44.25.06.03.12.06.17.08.14.07.29.14.44.2.07.03.14.05.22.08.14.05.28.1.42.15.09.03.19.05.28.07.13.03.25.07.39.1.13.03.25.04.38.06.1.01.2.04.31.05.24.02.47.04.71.04,3.96,0,7.17-3.22,7.17-7.17,0-3.57-2.67-6.62-6.21-7.1Z" fill="url(#c)"/><path d="m29.03,56.41c.38-.05.68-.07.97-.07,3.67,0,6.9-1.95,8.7-4.87.32-.52.6-1.07.82-1.65.45-1.15.7-2.4.7-3.7,0-.2.01-.39.03-.59,0-.09.01-.17.02-.26,0-.03.01-.06.01-.1.04-.26.09-.52.15-.79.18-.7.46-1.36.81-1.96.06-.09.11-.18.17-.27.04-.06.09-.12.13-.19.09-.12.17-.24.27-.36.04-.05.08-.09.12-.14.11-.13.22-.25.34-.37.03-.03.07-.07.1-.1.13-.13.27-.25.41-.37.03-.02.05-.04.08-.07.52-.42,1.09-.77,1.71-1.04.04-.02.09-.03.13-.05.16-.06.31-.12.48-.17.07-.02.14-.04.2-.06.14-.04.29-.08.44-.11.08-.02.15-.03.23-.05.15-.03.3-.05.46-.07.07,0,.14-.02.21-.03.22-.02.45-.03.68-.03s.46.01.68.03c.07,0,.14.02.21.03.15.02.31.04.46.07.08.01.15.03.23.05.15.03.29.07.43.11.07.02.14.04.21.06.16.05.32.11.47.17.05.02.09.04.14.05.41.18.81.39,1.18.64,0,0,0,0,.01,0,.18.12.35.25.51.38.03.02.06.05.09.07.14.12.27.24.4.36.04.04.08.08.11.11.11.11.22.23.32.36.04.05.09.1.13.15.09.11.17.22.25.34.05.07.1.14.15.21.05.07.09.15.14.22.37.61.66,1.28.84,2,.06.25.11.49.14.73,0,.05.02.11.02.16.01.08.02.16.02.24.02.2.03.4.03.6,0,3.44-2.45,6.4-5.83,7.04-.46.09-.91.13-1.35.13-.33,0-.65.02-.97.05-.01,0-.03,0-.04,0-.32.03-.63.08-.93.14-.01,0-.03,0-.04,0-.31.06-.61.14-.91.23,0,0-.02,0-.02,0-.26.08-.52.17-.77.27-.04.02-.08.03-.12.05h0c-.54.22-1.05.48-1.54.78-2.92,1.8-4.86,5.03-4.86,8.7,0,.11-.01.22-.02.33v.12c-.07.94-.3,1.83-.69,2.63,0,0,0,.02-.01.03-.09.19-.19.37-.3.55,0,.02-.02.03-.03.05-.1.17-.22.34-.33.5-.02.02-.03.04-.05.06-.12.16-.24.31-.36.45-.02.03-.05.05-.07.07-.12.14-.25.27-.39.4-.03.03-.06.05-.09.08-.13.12-.27.24-.41.35-.04.03-.08.06-.11.08-.14.11-.28.21-.43.3-.05.03-.09.06-.14.08-.14.09-.29.17-.44.25-.06.03-.12.06-.17.08-.14.07-.29.14-.44.2-.07.03-.14.05-.22.08-.14.05-.28.1-.42.15-.09.03-.19.05-.28.07-.13.03-.25.07-.39.1-.13.03-.25.04-.38.06-.1.01-.2.04-.31.05-.24.02-.47.04-.71.04-3.96,0-7.17-3.22-7.17-7.17,0-3.57,2.67-6.62,6.21-7.1Z" fill="url(#d)"/><path d="m11.64,21.79c.38-.05.68-.07.97-.07,3.67,0,6.9-1.95,8.7-4.87.32-.52.6-1.07.82-1.65.45-1.15.7-2.4.7-3.7,0-.2.01-.39.03-.59,0-.09.01-.17.02-.26,0-.03.01-.06.01-.1.04-.26.09-.52.15-.79.18-.7.46-1.36.81-1.96.06-.09.11-.18.17-.27.04-.06.09-.12.13-.19.09-.12.17-.24.27-.36.04-.05.08-.09.12-.14.11-.13.22-.25.34-.37.03-.03.07-.07.1-.1.13-.13.27-.25.41-.37.03-.02.05-.04.08-.07.52-.42,1.09-.77,1.71-1.04.04-.02.09-.03.13-.05.16-.06.31-.12.48-.17.07-.02.14-.04.2-.06.14-.04.29-.08.44-.11.08-.02.15-.03.23-.05.15-.03.3-.05.46-.07.07,0,.14-.02.21-.03.22-.02.45-.03.68-.03s.46.01.68.03c.07,0,.14.02.21.03.15.02.31.04.46.07.08.01.15.03.23.05.15.03.29.07.43.11.07.02.14.04.21.06.16.05.32.11.47.17.05.02.09.04.14.05.41.18.81.39,1.18.64,0,0,0,0,.01,0,.18.12.35.25.51.38.03.02.06.05.09.07.14.12.27.24.4.36.04.04.08.08.11.11.11.11.22.23.32.36.04.05.09.1.13.15.09.11.17.22.25.34.05.07.1.14.15.21.05.07.09.15.14.22.37.61.66,1.28.84,2,.06.25.11.49.14.73,0,.05.02.11.02.16.01.08.02.16.02.24.02.2.03.4.03.6,0,3.44-2.45,6.4-5.83,7.04-.46.09-.91.13-1.35.13-.33,0-.65.02-.97.05-.01,0-.03,0-.04,0-.32.03-.63.08-.93.14-.01,0-.03,0-.04,0-.31.06-.61.14-.91.23,0,0-.02,0-.02,0-.26.08-.52.17-.77.27-.04.02-.08.03-.12.05h0c-.54.22-1.05.48-1.54.78-2.92,1.8-4.86,5.03-4.86,8.7,0,.11-.01.22-.02.33v.12c-.07.94-.3,1.83-.69,2.63,0,0,0,.02-.01.03-.09.19-.19.37-.3.55,0,.02-.02.03-.03.05-.1.17-.22.34-.33.5-.02.02-.03.04-.05.06-.12.16-.24.31-.36.45-.02.03-.05.05-.07.07-.12.14-.25.27-.39.4-.03.03-.06.05-.09.08-.13.12-.27.24-.41.35-.04.03-.08.06-.11.08-.14.11-.28.21-.43.3-.05.03-.09.06-.14.08-.14.09-.29.17-.44.25-.06.03-.12.06-.17.08-.14.07-.29.14-.44.2-.07.03-.14.05-.22.08-.14.05-.28.1-.42.15-.09.03-.19.05-.28.07-.13.03-.25.07-.39.1-.13.03-.25.04-.38.06-.1.01-.2.04-.31.05-.24.02-.47.04-.71.04-3.96,0-7.17-3.22-7.17-7.17,0-3.57,2.67-6.62,6.21-7.1Z" fill="url(#e)"/><path d="m30.97,56.41c-.38-.05-.68-.07-.97-.07-3.67,0-6.9-1.95-8.7-4.87-.32-.52-.6-1.07-.82-1.65-.45-1.15-.7-2.4-.7-3.7,0-.2-.01-.39-.03-.59,0-.09-.01-.17-.02-.26,0-.03-.01-.06-.01-.1-.04-.26-.09-.52-.15-.79-.18-.7-.46-1.36-.81-1.96-.06-.09-.11-.18-.17-.27-.04-.06-.09-.12-.13-.19-.09-.12-.17-.24-.27-.36-.04-.05-.08-.09-.12-.14-.11-.13-.22-.25-.34-.37-.03-.03-.07-.07-.1-.1-.13-.13-.27-.25-.41-.37-.03-.02-.05-.04-.08-.07-.52-.42-1.09-.77-1.71-1.04-.04-.02-.09-.03-.13-.05-.16-.06-.31-.12-.48-.17-.07-.02-.14-.04-.2-.06-.14-.04-.29-.08-.44-.11-.08-.02-.15-.03-.23-.05-.15-.03-.3-.05-.46-.07-.07,0-.14-.02-.21-.03-.22-.02-.45-.03-.68-.03s-.46.01-.68.03c-.07,0-.14.02-.21.03-.15.02-.31.04-.46.07-.08.01-.15.03-.23.05-.15.03-.29.07-.43.11-.07.02-.14.04-.21.06-.16.05-.32.11-.47.17-.05.02-.09.04-.14.05-.41.18-.81.39-1.18.64,0,0,0,0-.01,0-.18.12-.35.25-.51.38-.03.02-.06.05-.09.07-.14.12-.27.24-.4.36-.04.04-.08.08-.11.11-.11.11-.22.23-.32.36-.04.05-.09.1-.13.15-.09.11-.17.22-.25.34-.05.07-.1.14-.15.21-.05.07-.09.15-.14.22-.37.61-.66,1.28-.84,2-.06.25-.11.49-.14.73,0,.05-.02.11-.02.16-.01.08-.02.16-.02.24-.02.2-.03.4-.03.6,0,3.44,2.45,6.4,5.83,7.04.46.09.91.13,1.35.13.33,0,.65.02.97.05.01,0,.03,0,.04,0,.32.03.63.08.93.14.01,0,.03,0,.04,0,.31.06.61.14.91.23,0,0,.02,0,.02,0,.26.08.52.17.77.27.04.02.08.03.12.05h0c.54.22,1.05.48,1.54.78,2.92,1.8,4.86,5.03,4.86,8.7,0,.11.01.22.02.33v.12c.07.94.3,1.83.69,2.63,0,0,0,.02.01.03.09.19.19.37.3.55,0,.02.02.03.03.05.1.17.22.34.33.5.02.02.03.04.05.06.12.16.24.31.36.45.02.03.05.05.07.07.12.14.25.27.39.4.03.03.06.05.09.08.13.12.27.24.41.35.04.03.08.06.11.08.14.11.28.21.43.3.05.03.09.06.14.08.14.09.29.17.44.25.06.03.12.06.17.08.14.07.29.14.44.2.07.03.14.05.22.08.14.05.28.1.42.15.09.03.19.05.28.07.13.03.25.07.39.1.13.03.25.04.38.06.1.01.2.04.31.05.24.02.47.04.71.04,3.96,0,7.17-3.22,7.17-7.17,0-3.57-2.67-6.62-6.21-7.1Z" fill="url(#f)"/><path d="m30.97,39.17c-.38-.05-.68-.07-.97-.07-3.67,0-6.9-1.95-8.7-4.87-.32-.52-.6-1.07-.82-1.65-.45-1.15-.7-2.4-.7-3.7,0-.2-.01-.39-.03-.59,0-.09-.01-.17-.02-.26,0-.03-.01-.06-.01-.1-.04-.26-.09-.52-.15-.79-.18-.7-.46-1.36-.81-1.96-.06-.09-.11-.18-.17-.27-.04-.06-.09-.12-.13-.19-.09-.12-.17-.24-.27-.36-.04-.05-.08-.09-.12-.14-.11-.13-.22-.25-.34-.37-.03-.03-.07-.07-.1-.1-.13-.13-.27-.25-.41-.37-.03-.02-.05-.04-.08-.07-.52-.42-1.09-.77-1.71-1.04-.04-.02-.09-.03-.13-.05-.16-.06-.31-.12-.48-.17-.07-.02-.14-.04-.2-.06-.14-.04-.29-.08-.44-.11-.08-.02-.15-.03-.23-.05-.15-.03-.3-.05-.46-.07-.07,0-.14-.02-.21-.03-.22-.02-.45-.03-.68-.03s-.46.01-.68.03c-.07,0-.14.02-.21.03-.15.02-.31.04-.46.07-.08.01-.15.03-.23.05-.15.03-.29.07-.43.11-.07.02-.14.04-.21.06-.16.05-.32.11-.47.17-.05.02-.09.04-.14.05-.41.18-.81.39-1.18.64,0,0,0,0-.01,0-.18.12-.35.25-.51.38-.03.02-.06.05-.09.07-.14.12-.27.24-.4.36-.04.04-.08.08-.11.11-.11.11-.22.23-.32.36-.04.05-.09.1-.13.15-.09.11-.17.22-.25.34-.05.07-.1.14-.15.21-.05.07-.09.15-.14.22-.37.61-.66,1.28-.84,2-.06.25-.11.49-.14.73,0,.05-.02.11-.02.16-.01.08-.02.16-.02.24-.02.2-.03.4-.03.6,0,3.44,2.45,6.4,5.83,7.04.46.09.91.13,1.35.13.33,0,.65.02.97.05.01,0,.03,0,.04,0,.32.03.63.08.93.14.01,0,.03,0,.04,0,.31.06.61.14.91.23,0,0,.02,0,.02,0,.26.08.52.17.77.27.04.02.08.03.12.05h0c.54.22,1.05.48,1.54.78,2.92,1.8,4.86,5.03,4.86,8.7,0,.11.01.22.02.33v.12c.07.94.3,1.83.69,2.63,0,0,0,.02.01.03.09.19.19.37.3.55,0,.02.02.03.03.05.1.17.22.34.33.5.02.02.03.04.05.06.12.16.24.31.36.45.02.03.05.05.07.07.12.14.25.27.39.4.03.03.06.05.09.08.13.12.27.24.41.35.04.03.08.06.11.08.14.11.28.21.43.3.05.03.09.06.14.08.14.09.29.17.44.25.06.03.12.06.17.08.14.07.29.14.44.2.07.03.14.05.22.08.14.05.28.1.42.15.09.03.19.05.28.07.13.03.25.07.39.1.13.03.25.04.38.06.1.01.2.04.31.05.24.02.47.04.71.04,3.96,0,7.17-3.22,7.17-7.17,0-3.57-2.67-6.62-6.21-7.1Z" fill="url(#g)"/></svg>