<?xml version='1.0' encoding='UTF-8'?><svg width="450px" height="855px" viewBox="0 0 450 855" version="1.1" xmlns="http://www.w3.org/2000/svg" xmlns:xlink="http://www.w3.org/1999/xlink"><!--Generator: Sketch 46.2 (44496) - http://www.bohemiancoding.com/sketch--><title>preview-android</title><desc>Created with Sketch.</desc><defs><rect id="path-1" x="0" y="112.059974" width="7.04041721" height="69.2307692" rx="3.5202086"/></defs><g id="Page-1" stroke="none" stroke-width="1" fill="none" fill-rule="evenodd"><g id="Samsung-Galaxy-S8-by-Emanuel-Serbanoiu" transform="translate(-127.000000, -122.000000)"><g id="preview-android" transform="translate(127.000000, 122.000000)"><mask id="mask-2" fill="white"><use xlink:href="#path-1"/></mask><use id="btn" fill="#EBEBEB" xlink:href="#path-1"/><rect id="btn" fill="#EBEBEB" x="0" y="193.024772" width="7.04041721" height="69.2307692" rx="3.5202086"/><rect id="btn" fill="#EBEBEB" x="442.959583" y="262.255541" width="7.04041721" height="69.2307692" rx="3.5202086"/><rect id="edges" fill="#F2F2F2" x="4.10691004" y="1.12911876e-13" width="442.372881" height="854.82399" rx="58"/><path d="M6.45371578,58.666238 L6.45371578,797.917856 C6.45371578,826.426308 29.571508,849.543677 58.0844043,849.543677 L392.502297,849.543677 C421.019087,849.543677 444.132986,826.431016 444.132986,797.917856 L444.132986,58.666238 C444.132986,30.1577861 421.015193,7.04041721 392.502297,7.04041721 L58.0844043,7.04041721 C29.5676143,7.04041721 6.45371578,30.1530782 6.45371578,58.666238 Z" id="main-bg" fill="white" fill-rule="nonzero"/><path d="M14.0808344,70.4016659 C14.0808344,57.4419999 24.5886712,46.9361147 37.545457,46.9361147 L413.041244,46.9361147 C426.000398,46.9361147 436.505867,57.4458237 436.505867,70.4016659 L436.505867,786.182428 C436.505867,799.142094 425.99803,809.647979 413.041244,809.647979 L37.545457,809.647979 C24.5863038,809.647979 14.0808344,799.13827 14.0808344,786.182428 L14.0808344,70.4016659 Z" id="Path" fill="#EBEBEB"/><path d="M16.4276402,70.4016659 L16.4276402,786.182428 C16.4276402,797.843566 25.8838092,807.301173 37.545457,807.301173 L413.041244,807.301173 C424.702759,807.301173 434.159061,797.845156 434.159061,786.182428 L434.159061,70.4016659 C434.159061,58.7405281 424.702892,49.2829205 413.041244,49.2829205 L37.545457,49.2829205 C25.8839428,49.2829205 16.4276402,58.7389383 16.4276402,70.4016659 Z" id="screen" fill="#F7F7F7" fill-rule="nonzero"/><g id="Status-Bar" transform="translate(33.300000, 56.700000)" fill="#EBEBEB"><path d="M352.864286,0 C349.127679,0 345.640179,1.25357143 342.9,3.34285714 L352.864286,16.7142857 L362.828571,3.34285714 C360.088393,1.25357143 356.600893,0 352.864286,0 L352.864286,0 Z M352.864286,6.68571429 C351.203571,6.68571429 349.708929,7.10357143 348.297321,7.77214286 L345.308036,3.76071429 C347.55,2.42357143 350.124107,1.67142857 352.864286,1.67142857 C355.604464,1.67142857 358.178571,2.42357143 360.420536,3.76071429 L357.43125,7.85571429 C356.019643,7.10357143 354.525,6.68571429 352.864286,6.68571429 L352.864286,6.68571429 Z" id="Shape"/><path d="M333.148352,5.22321429 L328.638462,0.642857143 L327.847253,0.642857143 L327.847253,6.75 L324.207692,3.05357143 L323.1,4.17857143 L327.530769,8.67857143 L323.1,13.1785714 L324.207692,14.3035714 L327.847253,10.6071429 L327.847253,16.7142857 L328.638462,16.7142857 L333.148352,12.1339286 L329.746154,8.67857143 L333.148352,5.22321429 L333.148352,5.22321429 Z M329.42967,3.69642857 L330.932967,5.22321429 L329.42967,6.75 L329.42967,3.69642857 L329.42967,3.69642857 Z M330.932967,12.1339286 L329.42967,13.6607143 L329.42967,10.6071429 L330.932967,12.1339286 L330.932967,12.1339286 Z" id="Shape"/><path d="M380.515396,2.13142857 L378.671564,2.13142857 L378.671564,0.422857143 L374.255199,0.422857143 L374.255199,2.13142857 L372.411366,2.13142857 C371.605379,2.13142857 370.942925,2.644 370.942925,3.26762857 L370.942925,16.3638286 C370.942925,16.996 371.605379,17.5085714 372.411366,17.5085714 L380.504355,17.5085714 C381.321383,17.5085714 381.983838,16.996 381.983838,16.3723714 L381.983838,3.26762857 C381.983838,2.644 381.321383,2.13142857 380.515396,2.13142857 Z M375.35929,15.8 L375.35929,11.1014286 L373.151107,11.1014286 L377.567472,4.69428571 L377.567472,9.39285714 L379.775655,9.39285714 L375.35929,15.8 Z" id="Shape" fill-rule="nonzero"/></g><g id="Cameras" transform="translate(70.200000, 16.200000)" fill="#EBEBEB"><circle id="Oval-Copy" cx="5.625" cy="9.7875" r="5.625"/><circle id="Oval-4-Copy-3" cx="28.8" cy="9.7875" r="7.875"/><ellipse id="Oval-4-Copy-2" cx="239.4" cy="11.0724594" rx="11.25" ry="11.0724594"/><ellipse id="Oval-4-Copy" cx="271.85625" cy="9.94003308" rx="8.15625" ry="8.02753308"/><rect id="speaker" x="127.8" y="3.6" width="54" height="13.5" rx="6.75"/></g></g></g></g></svg>