<?xml version="1.0" encoding="UTF-8"?><svg id="a" xmlns="http://www.w3.org/2000/svg" width="300" height="300" xmlns:xlink="http://www.w3.org/1999/xlink" viewBox="0 0 300 300"><defs><clipPath id="b"><path d="m149.99,24.49h0c69.31,0,125.51,56.19,125.51,125.5h0c0,69.31-56.19,125.51-125.51,125.51h0c-69.31,0-125.5-56.19-125.5-125.51h0c0-69.31,56.19-125.5,125.5-125.5Z" fill="none" stroke-width="0"/></clipPath></defs><rect x="20.79" y="20.79" width="258.42" height="258.42" rx="129.21" ry="129.21" fill="#666" stroke-width="0"/><g clip-path="url(#b)"><path d="m82.15,193.79h24.36v12.26h-24.36v-12.26Zm0-31.34h24.36v12.26h-24.36v-12.26Zm37.13,31.34h24.36v12.26h-24.36v-12.26Zm0-31.34h24.36v12.26h-24.36v-12.26Zm0-31.35h24.36v12.26h-24.36v-12.26Zm-37.13,0h24.36v12.26h-24.36v-12.26Zm37.13-31.34h24.36v12.26h-24.36v-12.26Zm-37.13,0h24.36v12.26h-24.36v-12.26Zm147.23,106.8h24.36v12.26h-24.36v-12.26Zm0-19.09v-12.26h24.36v12.26h-24.36Zm-37.13,50.43h24.36v12.26h-24.36v-12.26Zm0-31.34h24.36v12.26h-24.36v-12.26Zm37.13,43.6v-12.26h24.36v12.26h-24.36Zm-37.13-74.95h24.36v12.26h-24.36v-12.26Zm64.22-35.45h-66.94v6.4h-14.61v133.04h96.17v-133.02h-14.61v-6.41h0Zm-110.1-75.45h-66.94v6.4h-21.85v208.5h36.7v-50.93h37.24v50.93h36.7V70.71h-21.85v-6.4Z" fill="#fff" fill-rule="evenodd" stroke-width="0"/></g></svg>