<svg id="Layer_1" data-name="Layer 1" xmlns="http://www.w3.org/2000/svg" width="36" height="36" viewBox="0 0 36 36"><defs><style>.cls-1 {
        fill: #fff;
      }

      .cls-2 {
        fill: #ce992c;
      }

      .cls-3 {
        fill: none;
      }

      .cls-4 {
        fill: #0f1d8d;
      }

      .cls-5 {
        fill: #7f04b2;
      }

      .cls-6 {
        fill: #005f35;
      }

      .cls-7 {
        fill: navy;
      }

      .cls-8 {
        fill: #9e131e;
      }

      .cls-9 {
        fill: #0018f9;
      }

      .cls-10 {
        fill: #0540d3;
      }</style></defs><g><path class="cls-1" d="M33.08,20.05a5.56,5.56,0,0,0-1.27-.53,5.71,5.71,0,0,0-1.63-3.58,5.25,5.25,0,0,0-3.76-1.57,5.56,5.56,0,0,0-.77-1.54L32.73,6h-5l-4.85,4.69a5.53,5.53,0,0,0-2.59-.18,7.7,7.7,0,0,0-2.29.74A7.09,7.09,0,0,0,11,10a7.09,7.09,0,0,0-3.48,2.35A10.13,10.13,0,0,0,5.68,16a6,6,0,0,0-3.37,1.82,7.73,7.73,0,0,0,0,10A6.34,6.34,0,0,0,7.11,30H30.45l.44-.09.16,0,.35-.09a5,5,0,0,0,.5-.18,5.24,5.24,0,0,0,.94-.49,5.91,5.91,0,0,0,.85-.64,5.36,5.36,0,0,0,1.81-4A4.75,4.75,0,0,0,33.08,20.05Z"/><path class="cls-2" d="M25.22,13.27l-1.65,1.59a1.14,1.14,0,0,1,.1.19c.06.12.1.21.11.24a2.68,2.68,0,0,1,.07.27,10.67,10.67,0,0,1,.09,2.26L26,15h0A5.28,5.28,0,0,0,25.22,13.27Z"/><g><polygon class="cls-3" points="31.22 19.98 28.34 22.04 28.34 22.04 31.22 19.98"/><polygon class="cls-2" points="8.01 18.68 8.01 18.68 8.01 18.68 8.01 18.68"/><polygon class="cls-2" points="6.16 16.56 6.16 16.56 6.16 16.57 6.16 16.56"/><polygon class="cls-4" points="17.93 15.02 17.93 15.02 17.93 15.02 17.93 15.02"/><path class="cls-5" d="M8,18.68l.16-.88s0-.08,0-.12c.7-3.59,2.55-4.64,3.61-4.95A4.78,4.78,0,0,1,17,14.06c.06,0,.11.11.16.16l.73.8V12h0a6.62,6.62,0,0,0-6.76-1.42A6.52,6.52,0,0,0,8,12.75a9.47,9.47,0,0,0-1.83,3.81h0Z"/><rect class="cls-6" x="23.94" y="17.81" transform="matrix(0.98, -0.17, 0.17, 0.98, -2.73, 4.43)"/><polygon class="cls-6" points="31.23 19.99 31.23 19.98 31.22 19.98 31.23 19.99"/><path class="cls-6" d="M26,15h0v0Z"/><path class="cls-2" d="M17.93,15h0l.71-.61.1-.09a4.58,4.58,0,0,1,1.11-.73l2.47-2.38a4.88,4.88,0,0,0-2-.08,6.52,6.52,0,0,0-2.41.88h0Z"/><path class="cls-7" d="M28.57,27.17H7.11A3.55,3.55,0,0,1,4.45,26a4.7,4.7,0,0,1-1.13-3.14,4.61,4.61,0,0,1,1.1-3.09,3.53,3.53,0,0,1,2.57-1h.12l.9,0H8L6.16,16.57h0a5.47,5.47,0,0,0-3.4,1.7,7.12,7.12,0,0,0,.05,9.2,5.74,5.74,0,0,0,4.3,1.92H28.57Z"/><path class="cls-8" d="M31.23,20a5.11,5.11,0,0,0-1.47-3.62A4.69,4.69,0,0,0,26,15v0l-2,2.81h0l1.4-.43a3.24,3.24,0,0,1,.74-.17,2.4,2.4,0,0,1,2.09.72A2.92,2.92,0,0,1,29,19.81a1.92,1.92,0,0,1-.11.76L28.34,22,31.22,20Z"/><path class="cls-6" d="M32.79,20.57A5.73,5.73,0,0,0,31.23,20h0L28.34,22h0l1.58,0a5.76,5.76,0,0,1,.79.09,3.07,3.07,0,0,1,1,.35,2,2,0,0,1,1,1.95A2.92,2.92,0,0,1,30,27.15H28.57v2.2H30a5.17,5.17,0,0,0,.79-.1A5.4,5.4,0,0,0,33.29,28a4.68,4.68,0,0,0,1.61-3.53A4.18,4.18,0,0,0,32.79,20.57Z"/><path class="cls-9" d="M11.43,15V25.71L31.25,6.62H28L15,19.12V15Zm11.82-.7Z"/><polygon class="cls-10" points="23.25 14.31 23.25 14.32 23.25 14.32 23.25 14.31"/></g></g></svg>