<?xml version="1.0" encoding="utf-8"?><!--Generator: Adobe Illustrator 22.0.1, SVG Export Plug-In . SVG Version: 6.00 Build 0)--><svg version="1.1" id="Layer_1" xmlns="http://www.w3.org/2000/svg" xmlns:xlink="http://www.w3.org/1999/xlink" x="0px" y="0px" viewBox="0 0 400 400" style="enable-background:new 0 0 400 400" xml:space="preserve"><style type="text/css"><!--.st0{fill:#0C8AFF;}-->.st0{fill:#ffffff;}</style><title>script block</title><g id="Layer_1_1_"><g><path class="st0" d="M204.8,259.9c0.1-2.7,0.3-5.3,0.7-7.9H72.9V116.4h166v84.9c5.8-3.6,12-6.3,18.6-8.1V81.8
			c0.1-6.9-5.3-12.5-12.2-12.7c-0.2,0-0.3,0-0.5,0H67.5c-6.9-0.1-12.6,5.3-12.7,12.2c0,0.2,0,0.3,0,0.5v177.4
			c-0.1,6.9,5.4,12.5,12.2,12.7c0.2,0,0.3,0,0.5,0h138C204.9,268,204.7,264,204.8,259.9L204.8,259.9L204.8,259.9z M235.5,82.6
			c4.6,0,8.4,3.7,8.5,8.4c0,4.7-3.8,8.5-8.4,8.5v0c-4.7,0-8.5-3.8-8.5-8.4C227.1,86.4,230.9,82.6,235.5,82.6z M199.7,91
			c0-4.6,3.8-8.4,8.4-8.4c4.7,0,8.5,3.8,8.5,8.4s-3.8,8.5-8.4,8.5S199.7,95.7,199.7,91C199.7,91,199.7,91,199.7,91z M68.3,91
			c0-4.7,3.8-8.4,8.5-8.4h87.9c4.7,0.2,8.3,4.1,8.2,8.7c-0.2,4.4-3.7,8-8.2,8.2H76.7C72.1,99.4,68.3,95.7,68.3,91z"/></g><path class="st0" d="M92.9,184.1l27.8,18.8c1.3,0.8,2.4,1.9,3.3,3.2c1.3,2.5,1.2,5.4-0.2,7.9c-0.6,1-1.8,1.6-2.9,1.6
		c-0.6,0-1.1-0.1-1.7-0.4c-0.8-0.3-1.5-0.7-2.2-1.2l-33.6-22c-0.2-0.1-0.4-0.3-0.8-0.5c-3-2-4.5-4.3-4.5-7s1.6-5.1,4.7-7.2l0.3-0.3
		l33.9-22.5c0.8-0.5,1.6-1,2.5-1.4c0.4-0.2,0.9-0.3,1.4-0.3c1.2,0,2.3,0.6,2.9,1.6c0.8,1.2,1.2,2.7,1.1,4.1c0,1.3-0.3,2.6-1,3.8
		c-0.8,1.3-2,2.4-3.3,3.2L92.9,184.1z"/><path class="st0" d="M172.1,146.9l-25,76.2c-0.5,1.8-1.2,3.4-2.1,5c-0.5,0.8-1.3,1.4-2.3,1.4c-1.4,0-2.6-0.7-3.5-1.8
		c-1-1.2-1.6-2.8-1.5-4.4c0.1-1.9,0.5-3.7,1.1-5.5l0.1-0.2l25-76.1c0.5-1.8,1.2-3.5,2.2-5.1c0.5-0.8,1.3-1.4,2.3-1.4
		c1.4,0,2.6,0.7,3.5,1.8c1,1.2,1.6,2.8,1.5,4.4c0,0.8-0.1,1.5-0.2,2.3C172.8,144.7,172.5,145.8,172.1,146.9z"/><path class="st0" d="M217,184.1l-27.8-18.8c-1.3-0.8-2.4-1.9-3.2-3.2c-1.3-2.5-1.3-5.5,0.1-7.9c0.6-1,1.7-1.6,2.9-1.6
		c0.5,0,1.1,0.1,1.6,0.4c0.9,0.4,1.7,0.9,2.5,1.4l33.8,22.5l0.3,0.3c3.1,2.1,4.7,4.4,4.7,7.2s-1.5,5-4.6,7c-0.2,0.2-0.4,0.4-0.7,0.5
		l-33.7,22c-0.7,0.5-1.4,0.9-2.2,1.2c-0.5,0.2-1.1,0.4-1.7,0.4c-1.2,0-2.2-0.6-2.9-1.6c-1.4-2.4-1.4-5.4-0.1-7.9
		c0.8-1.3,2-2.3,3.3-3.1L217,184.1z"/><g><path class="st0" d="M211.2,260.2c-1.1,35.3,26.6,65.6,61.7,67.5l1.4,0c0.7,0,1.5,0,2.2,0c35.1,0,64.2-27.9,65.5-63.2
			c1.2-35.3-26.4-65.6-61.6-67.5l-1.5,0c-17.5-0.6-34.2,5.6-47,17.5S211.8,242.6,211.2,260.2L211.2,260.2z M259.5,215.4
			c6-2.2,12.3-3.2,18.8-3l1,0l0.1,0c26.9,1.5,48.1,24.7,47.2,51.6l-0.1,3.1h-0.1c-1,10.3-5.2,20.1-11.9,27.9l-2.7,3.1l-56.1-81.3
			L259.5,215.4z M226.7,260.7L226.7,260.7c0.4-12,5.2-23.4,13.4-32.2l2.7-2.9l56.2,81.6l-3.7,1.5c-6,2.4-12.2,3.7-18.6,3.7
			c-0.5,0-1.1,0-1.7,0l-1.1,0C246.8,310.6,226,287.9,226.7,260.7z"/></g></g></svg>