<?xml version="1.0" encoding="utf-8"?><!--Generator: Adobe Illustrator 28.1.0, SVG Export Plug-In . SVG Version: 6.00 Build 0)--><svg version="1.1" id="d" xmlns="http://www.w3.org/2000/svg" xmlns:xlink="http://www.w3.org/1999/xlink" x="0px" y="0px" viewBox="0 0 485 75" style="enable-background:new 0 0 485 75" xml:space="preserve"><style type="text/css">.st0{fill:#FFFFFF;}
	.st1{fill:#006D27;}</style><polygon class="st0" points="107.7,38.1 99,4.4 70.8,4.4 70.8,70.3 89.7,70.3 89.7,32.8 99.3,70.3 116.1,70.3 125.7,32.8 
	125.7,70.3 144.6,70.3 144.6,4.4 116.3,4.4 "/><path class="st0" d="M172.1,4.4l-24.8,65.9h23.2l3.1-10.4h19.8l3.1,10.4h23.7L195.4,4.4H172.1L172.1,4.4z M188.4,43.3h-9.7l4.8-15.9
	L188.4,43.3z"/><path class="st0" d="M275.3,45.7c-1.5-1.8-2.6-3-3.4-3.6c-0.4-0.3-0.9-0.6-1.4-0.8c1.2-0.4,2.2-0.9,3-1.4c2.8-1.7,5-4,6.7-6.7
	c1.6-2.8,2.4-6,2.4-9.8c0-4.3-1.1-8-3.2-11.1c-2.1-3.1-5-5.2-8.5-6.3c-3.4-1.1-8-1.6-14.2-1.6h-33.9v65.9h22.6V44.8h0.2
	c1.5,0,2.8,0.4,3.9,1.2c0.6,0.4,1.6,1.5,3.1,4.3l10.8,20h25.4l-10.5-20.4C277.7,48.9,276.7,47.5,275.3,45.7L275.3,45.7z M260.1,24.9
	c0,1-0.3,1.9-0.9,2.7c-0.6,0.8-1.3,1.2-2.3,1.4c-3,0.7-4.3,0.8-4.8,0.8h-6.7v-9.8h7c3.9,0,5.6,0.7,6.3,1.3
	C259.6,22.1,260.1,23.3,260.1,24.9L260.1,24.9z"/><polygon class="st0" points="285.2,4.4 285.2,22.9 305,22.9 305,70.3 327.5,70.3 327.5,22.9 347.3,22.9 347.3,4.4 "/><path class="st0" d="M56.5,31.8c-4.6-2.5-9.9-4.1-16.6-5c-1.3-0.2-5.6-1-6.3-3.7c-0.1-0.4,0-0.8,0.2-1.1c0.4-0.6,1.2-1.1,2-1.2
	c2.2-0.4,5.4,0.1,6.8,1.5c0.4,0.4,0.7,1.1,0.8,1.3l0.3,1.1l23,0.5L66.4,22c-0.4-2.7-0.9-5.3-2.3-8C56.5,0.3,37,2,31.2,2.9
	c-10,1.5-17.1,6.5-19.9,14.2c-2.7,7.6-0.6,16.9,5.1,22c5.2,4.6,11.7,6.3,18.1,8c1.5,0.4,3,0.8,4.4,1.2l0.4,0.1
	c1.8,0.5,3.7,1.1,4.3,2.5c0.3,0.7,0,1.7-0.6,2.5c-1.1,1.4-3,2-5.9,1.9c-2.7-0.1-4.7-1.9-6.1-5.4l-0.5-1.6l-23,0.2l0.3,1.7
	c1.2,7.3,4.3,12.7,9.6,16.4c6.1,4.4,14.8,5.9,21.5,5.9c1.2,0,2.3-0.1,3.4-0.1c12.5-1,25.4-9.1,25.8-22.5
	C68.4,42.4,64.3,35.9,56.5,31.8L56.5,31.8z"/><polygon class="st1" points="454.7,36.3 475.5,3.9 449.5,3.9 439.8,21.2 429.8,3.9 403.5,3.9 424.6,36 401.5,70.8 428.1,70.8 
	439.4,52.4 450.7,70.8 477.5,70.8 "/><path class="st1" d="M409.5,54.1c1.6-4.1,2.4-9.8,2.4-17c0-4.6-0.5-9-1.6-13.1c-1.1-4.2-2.9-8-5.3-11.2c-2.5-3.2-5.7-5.8-9.5-7.5
	c-3.8-1.7-8.7-2.6-14.6-2.6H350v69.2h30.9c3.6,0,7.7-0.6,12.1-1.8c3.4-0.9,6.7-2.8,9.6-5.7C405.6,61.7,407.9,58.2,409.5,54.1
	L409.5,54.1z M373.5,21.5h2.8c4.4,0,7.5,1,9.3,3.1c1.3,1.5,2.8,4.9,2.8,12.9c0,6.1-0.7,9.1-1.3,10.5c-0.8,1.9-1.8,3.2-3.1,3.9
	c-1,0.5-3.1,1.2-7.7,1.2h-2.8L373.5,21.5L373.5,21.5z"/></svg>