<?xml version="1.0" encoding="UTF-8"?><svg id="a" xmlns="http://www.w3.org/2000/svg" width="30" height="30" viewBox="0 0 24 24"><path d="M5.22,18.78c-3.74-3.74-3.74-9.83,0-13.57,1.81-1.81,4.22-2.81,6.78-2.81s4.97,1,6.78,2.81l.26.27-13.57,13.57-.27-.26Z" style="fill:#002bc6;stroke-width:0px"/><path d="M12,2.78c2.36,0,4.72.9,6.52,2.7l-13.03,13.03c-3.6-3.6-3.6-9.44,0-13.03,1.8-1.8,4.16-2.7,6.52-2.7M12,2.03c-2.66,0-5.17,1.04-7.05,2.92-3.89,3.89-3.89,10.21,0,14.1l.53.53.53-.53,13.03-13.03.53-.53-.53-.53c-1.88-1.88-4.39-2.92-7.05-2.92h0Z" style="fill:#333;stroke-width:0px"/><path d="M12,21.59c-2.56,0-4.97-1-6.78-2.81l-.26-.27,13.57-13.57.27.26c3.74,3.74,3.74,9.83,0,13.57-1.81,1.81-4.22,2.81-6.78,2.81Z" style="fill:#db0010;stroke-width:0px"/><path d="M18.52,5.48c3.6,3.6,3.6,9.44,0,13.03-1.8,1.8-4.16,2.7-6.52,2.7s-4.72-.9-6.52-2.7l13.03-13.03M18.52,4.42l-.53.53-13.03,13.03-.53.53.53.53c1.88,1.88,4.39,2.92,7.05,2.92s5.17-1.04,7.05-2.92c3.89-3.89,3.89-10.21,0-14.1l-.53-.53h0Z" style="fill:#333;stroke-width:0px"/><path d="M7.95,4.62h1.21l2.37,6.24h-1.28l-.56-1.54h-2.33l-.55,1.54h-1.26l2.4-6.24ZM7.65,8.42h1.73l-.33-.92c-.09-.28-.18-.54-.26-.78-.08-.24-.17-.51-.25-.8h-.02c-.09.27-.18.53-.27.79-.09.25-.18.52-.28.8l-.33.92Z" style="fill:#fff;stroke-width:0px"/><path d="M14.84,12.52c.64,0,1.15.14,1.52.42.37.28.56.68.56,1.19,0,.19-.03.36-.09.51-.06.15-.15.28-.25.39s-.23.2-.37.27c-.14.07-.28.13-.43.17.18.03.35.09.51.17s.3.18.43.31c.12.13.22.28.29.46.07.18.1.38.1.6,0,.26-.06.49-.17.71-.11.22-.27.4-.48.56-.2.15-.45.28-.74.36-.29.09-.6.13-.95.13h-2.05v-6.24h2.11ZM13.94,15.06h.67c.3,0,.56-.06.76-.19.21-.13.31-.34.31-.64,0-.26-.09-.45-.27-.58-.18-.13-.43-.19-.76-.19h-.71v1.6ZM13.94,17.83h.68c.17,0,.33-.02.49-.05.15-.03.28-.09.4-.16.11-.07.2-.17.26-.29.06-.12.09-.27.09-.44s-.04-.31-.11-.42c-.07-.12-.17-.21-.29-.28-.12-.07-.26-.13-.42-.16-.16-.03-.32-.05-.5-.05h-.61v1.85Z" style="fill:#fff;stroke-width:0px"/><line x1="18.26" y1="5.31" x2="4.98" y2="18.51" style="fill:none;stroke:#fff;stroke-miterlimit:10;stroke-width:.75px"/></svg>