<?xml version="1.0" encoding="UTF-8"?><svg id="a" xmlns="http://www.w3.org/2000/svg" width="300" height="300" xmlns:xlink="http://www.w3.org/1999/xlink" viewBox="0 0 300 300"><defs><clipPath id="b"><rect x="24.49" y="24.49" width="251.01" height="251.01" rx="125.51" ry="125.51" fill="none" stroke-width="0"/></clipPath></defs><rect x="20.79" y="20.79" width="258.42" height="258.42" rx="129.21" ry="129.21" fill="#666" stroke-width="0"/><g clip-path="url(#b)"><path d="m38.08,284.96s-.02-50.26,20.04-58.13c21.75-8.53,51.47-16.72,56.7-22.07l.15-8.89,8.89.28.56-11.99s-11.57-4.37-11.42-24.54c0,0-8.04,2.4-8.61-10.86,0,0,.43-2.68-.99-6.62-1.41-3.95-3.1-9.73,3.24-16.08,0,0-5.5-13.39-5.64-19.6-.15-6.21-4.09-46.26,18.62-39.49l.28-4.65s1.55-9.17,23.41-9.59c21.86-.43,30.89,3.24,39.21,9.45,8.19,6.11,11.41,17.63,12.41,28.49,1.13,12.27.71,30.89-1.69,34.55,0,0,13.39-.56,4.65,21.86,0,0-3.38,13.54-11.01,12.27,0,0,1.27,20.59-9.31,23.97l.99,11.7,9.17,2.12.43,8.61s11.8,6.77,30.69,11.99c18.9,5.22,39.49,15.09,41.48,29.76,1.97,14.67,1.55,37.75,1.55,37.75" fill="#fff" stroke-width="0"/></g></svg>