<?xml version="1.0" standalone="no"?><!DOCTYPE svg PUBLIC "-//W3C//DTD SVG 20010904//EN"
 "http://www.w3.org/TR/2001/REC-SVG-20010904/DTD/svg10.dtd"><svg version="1.0" xmlns="http://www.w3.org/2000/svg" width="1200.000000pt" height="1200.000000pt" viewBox="0 0 1200.000000 1200.000000" preserveAspectRatio="xMidYMid meet"><metadata>Created by potrace 1.14, written by Peter Selinger 2001-2017</metadata><g transform="translate(0.000000,1200.000000) scale(0.100000,-0.100000)" fill="#000000" stroke="none"><path d="M5868 11525 c-2 -2 -29 -7 -60 -10 -74 -7 -235 -49 -328 -86 -172
-69 -364 -198 -493 -333 -185 -193 -332 -480 -371 -726 -3 -19 -8 -46 -11 -60
-3 -14 -7 -68 -10 -120 -15 -269 -25 -344 -71 -484 -34 -106 -118 -280 -161
-336 -7 -8 -29 -39 -51 -68 -109 -147 -275 -287 -448 -377 -110 -58 -284 -116
-387 -130 -23 -3 -53 -8 -67 -11 -14 -2 -87 -7 -163 -9 -76 -3 -150 -7 -165
-9 -15 -2 -47 -7 -72 -11 -193 -29 -459 -145 -628 -276 -207 -159 -380 -400
-469 -654 -29 -80 -25 -69 -54 -200 -37 -175 -27 -478 23 -635 105 -337 264
-567 527 -766 94 -71 309 -181 409 -210 l62 -18 -92 -31 c-206 -70 -378 -177
-538 -335 -224 -222 -369 -520 -407 -838 -9 -73 -9 -271 1 -343 65 -522 438
-981 936 -1153 153 -52 266 -71 485 -81 167 -7 238 -18 365 -56 527 -157 906
-621 955 -1169 2 -30 7 -107 10 -170 7 -133 9 -150 29 -246 17 -81 63 -223 78
-242 6 -6 8 -12 4 -12 -9 0 81 -167 127 -235 163 -244 405 -433 687 -538 83
-30 125 -42 275 -73 60 -13 340 -12 415 1 411 69 739 276 963 607 145 214 229
459 242 709 15 291 19 315 61 464 49 174 173 393 294 522 210 222 494 378 766
418 21 4 52 8 68 11 15 3 83 7 150 9 142 6 195 11 296 32 372 75 712 314 916
643 71 114 144 285 169 394 56 245 52 501 -11 726 -44 160 -130 334 -229 465
-173 228 -405 398 -671 489 l-90 32 85 28 c334 109 637 370 802 692 71 137
126 309 145 454 9 66 9 319 1 376 -69 472 -362 876 -782 1079 -96 47 -203 88
-257 101 -10 2 -28 6 -40 9 -81 18 -221 35 -333 39 -71 3 -159 9 -195 15 -544
88 -977 488 -1104 1021 -26 108 -28 128 -42 380 -3 57 -10 127 -15 155 -6 27
-12 61 -15 75 -24 129 -110 336 -192 464 -208 324 -552 551 -944 625 -86 16
-368 28 -380 16z"/></g></svg>